{"accessors" : [{"bufferView" : 0, "byteOffset" : 0, "componentType" : 5123, "count" : 7689, "type" : "SCALAR", "max" : [6188], "min" : [0]}, {"bufferView" : 1, "byteOffset" : 0, "componentType" : 5126, "count" : 6189, "type" : "VEC3", "max" : [86.3131332397461, 26.83662986755371, 0.013079999946057796], "min" : [-86.3131332397461, -26.83662986755371, -176.59323120117188], "name" : "POSITION"}, {"bufferView" : 1, "byteOffset" : 12, "componentType" : 5126, "count" : 6189, "type" : "VEC3", "max" : [0.9998344779014587, 1.0000016689300537, 0.9999768137931824], "min" : [-0.9998341798782349, -0.9996944665908813, -0.9972518086433411], "name" : "NORMAL"}, {"bufferView" : 1, "byteOffset" : 24, "componentType" : 5126, "count" : 6189, "type" : "VEC2", "max" : [0.9685789942741394, 0.9789469838142395], "min" : [0.013810999691486359, 0.012202978134155273], "name" : "TEXCOORD_0"}], "asset" : {"generator" : "Aspose.3D 22.7", "version" : "2.0"}, "buffers" : [{"uri" : "data:application/octet-stream;base64,", "byteLength" : 261436}], "bufferViews" : [{"buffer" : 0, "byteOffset" : 0, "byteLength" : 15380, "target" : 34963}, {"buffer" : 0, "byteOffset" : 15384, "byteLength" : 246048, "byteStride" : 32, "target" : 34962}], "materials" : [{"name" : "lambert7SG2", "pbrMetallicRoughness" : {"baseColorFactor" : [0.800000011920929, 0.800000011920929, 0.800000011920929, 1], "metallicFactor" : 0, "roughnessFactor" : 0.5}, "emissiveFactor" : [0, 0, 0], "alphaMode" : "OPAQUE", "doubleSided" : true}], "meshes" : [{"primitives" : [{"attributes" : {"POSITION" : 1, "NORMAL" : 2, "TEXCOORD_0" : 3}, "indices" : 0, "material" : 0, "mode" : 4}]}], "nodes" : [{"matrix" : [1, 0, 0, 0, 0, -1.3435885648505064E-07, 0.9999999657714511, 0, 0, -0.9999999657714511, -1.3435885648505064E-07, 0, 0, 0, 0, 1], "mesh" : 0, "name" : "Main"}], "scene" : 0, "scenes" : [{"nodes" : [0]}]}